{
    "asset": {
        "version": "2.0",
        "generator": "Open Asset Import Library (assimp v5.4.0)"
    },
    "extensionsUsed": [
        "KHR_materials_volume",
        "FB_ngon_encoding"
    ],
    "accessors": [
        {
            "bufferView": 0,
            "byteOffset": 0,
            "componentType": 5126,
            "count": 41226,
            "type": "VEC3",
            "max": [
                53.39891052246094,
                20.647537231445313,
                -0.5811750888824463
            ],
            "min": [
                -53.39891052246094,
                -16.309463500976563,
                -180.5357208251953
            ]
        },
        {
            "bufferView": 1,
            "byteOffset": 0,
            "componentType": 5126,
            "count": 41226,
            "type": "VEC3",
            "max": [
                0.9998454451560974,
                0.9997726082801819,
                0.9991985559463501
            ],
            "min": [
                -0.9998454451560974,
                -0.9997864365577698,
                -0.9994553923606873
            ]
        },
        {
            "bufferView": 2,
            "byteOffset": 0,
            "componentType": 5126,
            "count": 41226,
            "type": "VEC2",
            "max": [
                0.9883400201797485,
                0.990339994430542
            ],
            "min": [
                0.012210000306367874,
                0.004589974880218506
            ]
        },
        {
            "bufferView": 3,
            "byteOffset": 0,
            "componentType": 5125,
            "count": 62292,
            "type": "SCALAR",
            "max": [
                41225
            ],
            "min": [
                0
            ]
        }
    ],
    "buffers": [
        {
            "byteLength": 1568400,
            "uri": "MocapMan_0.bin"
        }
    ],
    "bufferViews": [
        {
            "buffer": 0,
            "byteOffset": 0,
            "byteLength": 494712,
            "target": 34962
        },
        {
            "buffer": 0,
            "byteOffset": 494712,
            "byteLength": 494712,
            "target": 34962
        },
        {
            "buffer": 0,
            "byteOffset": 989424,
            "byteLength": 329808,
            "target": 34962
        },
        {
            "buffer": 0,
            "byteOffset": 1319232,
            "byteLength": 249168,
            "target": 34963
        }
    ],
    "materials": [
        {
            "name": "lambert1",
            "pbrMetallicRoughness": {
                "baseColorFactor": [
                    0.5,
                    0.5,
                    0.5,
                    1.0
                ],
                "metallicFactor": 0.0,
                "roughnessFactor": 0.5527864098548889
            },
            "doubleSided": true
        }
    ],
    "meshes": [
        {
            "name": "meshes[0]",
            "primitives": [
                {
                    "mode": 4,
                    "material": 0,
                    "indices": 3,
                    "attributes": {
                        "POSITION": 0,
                        "NORMAL": 1,
                        "TEXCOORD_0": 2
                    }
                }
            ]
        }
    ],
    "nodes": [
        {
            "name": "MocapMan",
            "children": [
                1
            ]
        },
        {
            "name": "Low_Poly_Male_bodyGroup2",
            "matrix": [
                0.009999999776482582,
                0.0,
                0.0,
                0.0,
                0.0,
                -1.3435885737322906e-9,
                0.010000000707805157,
                0.0,
                0.0,
                -0.010000000707805157,
                -1.3435885737322906e-9,
                0.0,
                0.0,
                0.0,
                0.0,
                1.0
            ],
            "mesh": 0,
            "extras": {
                "name": "Low_Poly_Male_body:Group2"
            }
        }
    ],
    "scenes": [
        {
            "nodes": [
                0
            ]
        }
    ],
    "scene": 0
}