{
	"asset":{
		"generator":"Khronos glTF Blender I/O v4.3.47",
		"version":"2.0"
	},
	"scene":0,
	"scenes":[
		{
			"name":"Scene",
			"nodes":[
				0
			]
		}
	],
	"nodes":[
		{
			"mesh":0,
			"name":"MocapMan",
			"rotation":[
				-0.70710688829422,
				0,
				0,
				0.7071066498756409
			]
		}
	],
	"materials":[
		{
			"name":"material_0",
			"normalTexture":{
				"index":0
			},
			"pbrMetallicRoughness":{
				"baseColorFactor":[
					0.21239006519317627,
					0.21239006519317627,
					0.21239006519317627,
					1
				],
				"metallicFactor":0,
				"roughnessFactor":0.6000000238418579
			}
		},
		{
			"doubleSided":true,
			"name":"Material.001",
			"pbrMetallicRoughness":{
				"baseColorFactor":[
					0.800000011920929,
					0.800000011920929,
					0.800000011920929,
					1
				],
				"metallicFactor":0,
				"roughnessFactor":0.5
			}
		}
	],
	"meshes":[
		{
			"name":"Object_0",
			"primitives":[
				{
					"attributes":{
						"POSITION":0,
						"NORMAL":1,
						"TEXCOORD_0":2
					},
					"indices":3,
					"material":0
				},
				{
					"attributes":{
						"POSITION":4,
						"NORMAL":5,
						"TEXCOORD_0":6
					},
					"indices":7,
					"material":1
				}
			]
		}
	],
	"textures":[
		{
			"sampler":0,
			"source":0
		}
	],
	"images":[
		{
			"mimeType":"image/png",
			"name":"material_0_normal",
			"uri":"material_0_normal.png"
		}
	],
	"accessors":[
		{
			"bufferView":0,
			"componentType":5126,
			"count":41210,
			"max":[
				0.47080400586128235,
				0.16203799843788147,
				1.8027470111846924
			],
			"min":[
				-0.4708090126514435,
				-0.15409700572490692,
				-0.0018599999602884054
			],
			"type":"VEC3"
		},
		{
			"bufferView":1,
			"componentType":5126,
			"count":41210,
			"type":"VEC3"
		},
		{
			"bufferView":2,
			"componentType":5126,
			"count":41210,
			"type":"VEC2"
		},
		{
			"bufferView":3,
			"componentType":5123,
			"count":232296,
			"type":"SCALAR"
		},
		{
			"bufferView":4,
			"componentType":5126,
			"count":193378,
			"max":[
				0.4794335663318634,
				0.171291321516037,
				1.8188505172729492
			],
			"min":[
				-0.4782736897468567,
				-0.15563467144966125,
				0.00323641300201416
			],
			"type":"VEC3"
		},
		{
			"bufferView":5,
			"componentType":5126,
			"count":193378,
			"type":"VEC3"
		},
		{
			"bufferView":6,
			"componentType":5126,
			"count":193378,
			"type":"VEC2"
		},
		{
			"bufferView":7,
			"componentType":5125,
			"count":221760,
			"type":"SCALAR"
		}
	],
	"bufferViews":[
		{
			"buffer":0,
			"byteLength":494520,
			"byteOffset":0,
			"target":34962
		},
		{
			"buffer":0,
			"byteLength":494520,
			"byteOffset":494520,
			"target":34962
		},
		{
			"buffer":0,
			"byteLength":329680,
			"byteOffset":989040,
			"target":34962
		},
		{
			"buffer":0,
			"byteLength":464592,
			"byteOffset":1318720,
			"target":34963
		},
		{
			"buffer":0,
			"byteLength":2320536,
			"byteOffset":1783312,
			"target":34962
		},
		{
			"buffer":0,
			"byteLength":2320536,
			"byteOffset":4103848,
			"target":34962
		},
		{
			"buffer":0,
			"byteLength":1547024,
			"byteOffset":6424384,
			"target":34962
		},
		{
			"buffer":0,
			"byteLength":887040,
			"byteOffset":7971408,
			"target":34963
		}
	],
	"samplers":[
		{
			"magFilter":9729,
			"minFilter":9987
		}
	],
	"buffers":[
		{
			"byteLength":8858448,
			"uri":"MocapFinal.bin"
		}
	]
}
